<svg width="154" height="24" viewBox="0 0 154 24" fill="none" xmlns="http://www.w3.org/2000/svg">
<path d="M13.896 2.712C13.272 2.296 12.52 1.968 11.64 1.728C10.776 1.488 9.928 1.368 9.096 1.368C7.496 1.368 6.056 1.736 4.776 2.472C3.512 3.192 2.52 4.2 1.8 5.496C1.08 6.792 0.72 8.264 0.72 9.912C0.72 11.56 1.056 13.016 1.728 14.28C2.416 15.544 3.4 16.536 4.68 17.256C5.96 17.96 7.464 18.312 9.192 18.312C10.04 18.312 10.904 18.208 11.784 18C12.68 17.776 13.44 17.48 14.064 17.112L12.408 13.848C11.416 14.44 10.384 14.736 9.312 14.736C8.624 14.736 7.96 14.544 7.32 14.16C6.696 13.76 6.192 13.192 5.808 12.456C5.424 11.72 5.232 10.864 5.232 9.888C5.232 8.928 5.416 8.072 5.784 7.32C6.168 6.568 6.656 5.984 7.248 5.568C7.856 5.152 8.488 4.944 9.144 4.944C9.688 4.944 10.184 4.992 10.632 5.088C11.096 5.184 11.752 5.376 12.6 5.664L13.896 2.712ZM23.1769 4.776C23.8329 4.776 24.3929 4.544 24.8569 4.08C25.3369 3.616 25.5769 3.064 25.5769 2.424C25.5769 1.768 25.3369 1.208 24.8569 0.743999C24.3929 0.263999 23.8329 0.0239997 23.1769 0.0239997C22.5369 0.0239997 21.9849 0.263999 21.5209 0.743999C21.0569 1.208 20.8249 1.768 20.8249 2.424C20.8249 3.064 21.0569 3.616 21.5209 4.08C21.9849 4.544 22.5369 4.776 23.1769 4.776ZM25.3849 18V6.36H21.0169V18H25.3849ZM38.5183 6.84V3.096L34.1503 3.696V6.84H32.3503V10.272H34.1503V13.632C34.1503 14.624 34.3983 15.472 34.8943 16.176C35.4063 16.864 36.0783 17.384 36.9103 17.736C37.7423 18.088 38.6383 18.264 39.5983 18.264C40.1423 18.264 40.7343 18.16 41.3743 17.952C42.0303 17.728 42.5103 17.488 42.8143 17.232L41.5663 14.256C41.0223 14.56 40.4623 14.712 39.8863 14.712C39.4703 14.712 39.1343 14.576 38.8783 14.304C38.6383 14.016 38.5183 13.632 38.5183 13.152V10.272H41.9743L41.5663 6.84H38.5183ZM52.8956 18.048C52.7836 18.352 52.4636 18.64 51.9356 18.912C51.4236 19.2 50.7516 19.52 49.9196 19.872L51.3836 23.256C52.5676 23 53.6556 22.52 54.6476 21.816C55.6396 21.112 56.3196 20.296 56.6876 19.368L61.7996 6.36H57.4556L55.2236 12.936L52.8476 5.928L48.8156 7.08L52.9916 17.784L52.8956 18.048Z" fill="white"/>
<path d="M81.7568 1.68H67.7888V5.112H72.5888V18H76.9568V5.112H82.1648L81.7568 1.68ZM101.608 12.24C101.608 13.504 101.312 14.592 100.72 15.504C100.144 16.416 99.3441 17.104 98.3201 17.568C97.3121 18.032 96.1761 18.264 94.9121 18.264C92.9601 18.264 91.3841 17.744 90.1841 16.704C89.0001 15.648 88.4081 14.12 88.4081 12.12C88.4081 10.856 88.6961 9.76 89.2721 8.832C89.8641 7.888 90.6561 7.176 91.6481 6.696C92.6561 6.2 93.7761 5.952 95.0081 5.952C96.3041 5.952 97.4481 6.192 98.4401 6.672C99.4321 7.152 100.208 7.864 100.768 8.808C101.328 9.752 101.608 10.896 101.608 12.24ZM94.9601 14.712C95.6481 14.712 96.1761 14.504 96.5441 14.088C96.9121 13.672 97.0961 13.056 97.0961 12.24C97.0961 11.44 96.9121 10.784 96.5441 10.272C96.1921 9.76 95.6961 9.504 95.0561 9.504C94.3841 9.504 93.8561 9.736 93.4721 10.2C93.1041 10.664 92.9201 11.304 92.9201 12.12C92.9201 12.92 93.0961 13.552 93.4481 14.016C93.8001 14.48 94.3041 14.712 94.9601 14.712ZM116.676 14.208C116.292 14.384 115.868 14.544 115.404 14.688C114.94 14.816 114.58 14.88 114.324 14.88C113.876 14.88 113.556 14.752 113.364 14.496C113.172 14.224 113.076 13.888 113.076 13.488V6.384H108.708V13.896C108.708 15.256 109.06 16.352 109.764 17.184C110.468 18 111.524 18.408 112.932 18.408C114.404 18.408 115.988 17.88 117.684 16.824L118.932 18.024H121.044V6.384H116.676V14.208ZM133.341 11.16C133.837 10.776 134.429 10.464 135.117 10.224C135.805 9.984 136.437 9.864 137.013 9.864L136.125 6.36C135.517 6.36 134.853 6.504 134.133 6.792C133.413 7.08 132.773 7.416 132.213 7.8L131.157 6.384H128.973V18H133.341V11.16ZM143.29 16.896C143.882 17.36 144.682 17.704 145.69 17.928C146.714 18.152 147.57 18.264 148.258 18.264C149.858 18.264 151.066 17.928 151.882 17.256C152.698 16.568 153.106 15.608 153.106 14.376C153.106 13.416 152.722 12.64 151.954 12.048C151.202 11.44 150.226 10.928 149.026 10.512C148.658 10.384 148.362 10.256 148.138 10.128C147.914 10 147.802 9.888 147.802 9.792C147.802 9.632 147.914 9.504 148.138 9.408C148.362 9.312 148.65 9.264 149.002 9.264C149.418 9.264 149.874 9.328 150.37 9.456C150.882 9.584 151.378 9.752 151.858 9.96L153.082 7.2C152.49 6.736 151.778 6.416 150.946 6.24C150.13 6.048 149.378 5.952 148.69 5.952C147.074 5.952 145.81 6.296 144.898 6.984C143.986 7.672 143.53 8.624 143.53 9.84C143.53 10.8 143.914 11.576 144.682 12.168C145.466 12.76 146.466 13.272 147.682 13.704C148.018 13.816 148.29 13.944 148.498 14.088C148.722 14.216 148.834 14.328 148.834 14.424C148.834 14.584 148.738 14.712 148.546 14.808C148.354 14.904 148.114 14.952 147.826 14.952C147.41 14.952 146.866 14.872 146.194 14.712C145.538 14.552 144.978 14.36 144.514 14.136L143.29 16.896Z" fill="#82B340"/>
</svg>
